<svg width="83" height="14" viewBox="0 0 83 14" fill="none" xmlns="http://www.w3.org/2000/svg">
<path d="M0.152 13V1.16H2.328V6.024H7.272V1.16H9.448V13H7.272V7.912H2.328V13H0.152ZM11.9057 13V1.16H14.0817V6.296L18.5938 1.176H21.3138L16.1778 6.856L21.5218 13H18.7057L14.0817 7.592V13H11.9057ZM24.4357 3.208C24.0624 3.208 23.7531 3.08533 23.5077 2.84C23.2731 2.59467 23.1557 2.30133 23.1557 1.96C23.1557 1.61867 23.2731 1.32533 23.5077 1.08C23.7531 0.834666 24.0624 0.712 24.4357 0.712C24.8091 0.712 25.1184 0.834666 25.3637 1.08C25.6091 1.32533 25.7317 1.61867 25.7317 1.96C25.7317 2.30133 25.6091 2.59467 25.3637 2.84C25.1184 3.08533 24.8091 3.208 24.4357 3.208ZM23.3797 13V4.52H25.5077V13H23.3797ZM27.8782 13V4.52H30.0062V5.736H30.1022C30.1876 5.58667 30.3209 5.40533 30.5022 5.192C30.6836 4.968 30.9342 4.776 31.2542 4.616C31.5742 4.44533 31.9796 4.36 32.4702 4.36C33.1209 4.36 33.6542 4.50933 34.0703 4.808C34.4969 5.096 34.8116 5.48 35.0142 5.96C35.2276 6.44 35.3342 6.95733 35.3342 7.512V13H33.2062V7.8C33.2062 7.34133 33.0782 6.94667 32.8222 6.616C32.5662 6.28533 32.1822 6.12 31.6702 6.12C31.2756 6.12 30.9556 6.22133 30.7102 6.424C30.4649 6.616 30.2836 6.86667 30.1662 7.176C30.0596 7.48533 30.0062 7.81067 30.0062 8.152V13H27.8782ZM39.7552 13L36.6032 4.52H38.7632L40.8912 10.568L42.9872 4.52H45.1473L41.9792 13H39.7552ZM48.0095 3.208C47.6362 3.208 47.3268 3.08533 47.0815 2.84C46.8468 2.59467 46.7295 2.30133 46.7295 1.96C46.7295 1.61867 46.8468 1.32533 47.0815 1.08C47.3268 0.834666 47.6362 0.712 48.0095 0.712C48.3828 0.712 48.6922 0.834666 48.9375 1.08C49.1828 1.32533 49.3055 1.61867 49.3055 1.96C49.3055 2.30133 49.1828 2.59467 48.9375 2.84C48.6922 3.08533 48.3828 3.208 48.0095 3.208ZM46.9535 13V4.52H49.0815V13H46.9535ZM54.876 13.16C54.1827 13.16 53.612 13.0693 53.164 12.888C52.716 12.696 52.3587 12.4613 52.092 12.184C51.836 11.896 51.644 11.6133 51.516 11.336C51.388 11.0587 51.3027 10.8293 51.26 10.648C51.228 10.456 51.212 10.36 51.212 10.36H53.228C53.228 10.36 53.244 10.4187 53.276 10.536C53.3187 10.6533 53.3933 10.792 53.5 10.952C53.6173 11.1013 53.7933 11.2347 54.028 11.352C54.2627 11.4693 54.572 11.528 54.956 11.528C55.4147 11.528 55.7453 11.432 55.948 11.24C56.1507 11.0373 56.252 10.8133 56.252 10.568C56.252 10.3333 56.1613 10.1467 55.98 10.008C55.8093 9.85867 55.5533 9.74667 55.212 9.672L54.044 9.432C53.5747 9.336 53.1373 9.19733 52.732 9.016C52.3267 8.824 51.996 8.568 51.74 8.248C51.484 7.91733 51.356 7.496 51.356 6.984C51.356 6.22667 51.644 5.60267 52.22 5.112C52.796 4.61067 53.58 4.36 54.572 4.36C55.2013 4.36 55.7187 4.44533 56.124 4.616C56.54 4.78667 56.8707 5 57.116 5.256C57.372 5.512 57.5587 5.768 57.676 6.024C57.804 6.28 57.884 6.49867 57.916 6.68C57.9587 6.85067 57.98 6.936 57.98 6.936H56.028C56.028 6.936 56.012 6.888 55.98 6.792C55.948 6.68533 55.8787 6.568 55.772 6.44C55.676 6.312 55.5267 6.2 55.324 6.104C55.132 5.99733 54.8707 5.944 54.54 5.944C54.092 5.944 53.772 6.04 53.58 6.232C53.3987 6.424 53.308 6.62667 53.308 6.84C53.308 7.07467 53.4093 7.256 53.612 7.384C53.8147 7.512 54.076 7.608 54.396 7.672L55.5 7.912C56.2893 8.072 56.9347 8.34933 57.436 8.744C57.948 9.13867 58.204 9.70933 58.204 10.456C58.204 10.9573 58.0707 11.416 57.804 11.832C57.548 12.2373 57.1693 12.5627 56.668 12.808C56.1773 13.0427 55.58 13.16 54.876 13.16ZM61.3295 3.208C60.9562 3.208 60.6468 3.08533 60.4015 2.84C60.1668 2.59467 60.0495 2.30133 60.0495 1.96C60.0495 1.61867 60.1668 1.32533 60.4015 1.08C60.6468 0.834666 60.9562 0.712 61.3295 0.712C61.7028 0.712 62.0122 0.834666 62.2575 1.08C62.5028 1.32533 62.6255 1.61867 62.6255 1.96C62.6255 2.30133 62.5028 2.59467 62.2575 2.84C62.0122 3.08533 61.7028 3.208 61.3295 3.208ZM60.2735 13V4.52H62.4015V13H60.2735ZM68.996 13.16C68.068 13.16 67.2787 12.952 66.628 12.536C65.9773 12.12 65.4813 11.5813 65.14 10.92C64.8093 10.248 64.644 9.528 64.644 8.76C64.644 7.992 64.8093 7.27733 65.14 6.616C65.4813 5.944 65.9773 5.4 66.628 4.984C67.2787 4.568 68.068 4.36 68.996 4.36C69.9347 4.36 70.724 4.568 71.364 4.984C72.0147 5.4 72.5053 5.944 72.836 6.616C73.1773 7.27733 73.348 7.992 73.348 8.76C73.348 9.528 73.1773 10.248 72.836 10.92C72.5053 11.5813 72.0147 12.12 71.364 12.536C70.724 12.952 69.9347 13.16 68.996 13.16ZM68.996 11.384C69.476 11.384 69.876 11.2613 70.196 11.016C70.5267 10.7707 70.7773 10.4507 70.948 10.056C71.1187 9.65067 71.204 9.21867 71.204 8.76C71.204 8.29067 71.1187 7.85867 70.948 7.464C70.7773 7.06933 70.5267 6.74933 70.196 6.504C69.876 6.25867 69.476 6.136 68.996 6.136C68.5267 6.136 68.1267 6.25867 67.796 6.504C67.4653 6.74933 67.2147 7.06933 67.044 7.464C66.8733 7.85867 66.788 8.29067 66.788 8.76C66.788 9.21867 66.8733 9.65067 67.044 10.056C67.2147 10.4507 67.4653 10.7707 67.796 11.016C68.1267 11.2613 68.5267 11.384 68.996 11.384ZM75.307 13V4.52H77.435V5.736H77.531C77.6163 5.58667 77.7497 5.40533 77.931 5.192C78.1123 4.968 78.363 4.776 78.683 4.616C79.003 4.44533 79.4083 4.36 79.899 4.36C80.5497 4.36 81.083 4.50933 81.499 4.808C81.9257 5.096 82.2403 5.48 82.443 5.96C82.6563 6.44 82.763 6.95733 82.763 7.512V13H80.635V7.8C80.635 7.34133 80.507 6.94667 80.251 6.616C79.995 6.28533 79.611 6.12 79.099 6.12C78.7043 6.12 78.3843 6.22133 78.139 6.424C77.8937 6.616 77.7123 6.86667 77.595 7.176C77.4883 7.48533 77.435 7.81067 77.435 8.152V13H75.307Z" fill="black"/>
</svg>
